<svg width="1440" height="605" viewBox="0 0 1440 605" fill="none" xmlns="http://www.w3.org/2000/svg">
<path opacity="0.3" fill-rule="evenodd" clip-rule="evenodd" d="M1452.18 56.1219C1419.98 39.5179 1362.31 18.7835 1293.93 10.5002C1225.54 2.21653 1146.39 6.3812 1071.25 39.6134C1047.75 50.0095 1031.57 62.4711 1020.76 76.3682C1009.95 90.2678 1004.53 105.576 1002.48 121.628C998.961 149.239 1005.44 179.102 1011.67 207.826C1012.67 212.458 1013.67 217.061 1014.62 221.62C1018.04 238.056 1020.82 253.926 1020.99 268.614C1021.16 283.296 1018.71 296.763 1011.7 308.41C997.682 331.689 965.29 347.922 898.268 351.759C797.403 357.533 727.522 329.598 668.317 305.929L668.316 305.929C648.876 298.157 630.586 290.846 612.728 285.339C576.611 274.202 542.28 270.471 503.878 285.381C465.501 300.282 423.121 333.775 370.829 396.932C318.608 460.003 274.241 479.415 234.143 474.749C193.986 470.076 157.93 441.246 122.362 407.354C113.771 399.168 105.208 390.686 96.6255 382.184L96.625 382.184C69.7257 355.539 42.63 328.699 13.8321 310.141C-5.17505 297.893 -24.956 289.228 -45.9528 286.597C-66.9568 283.966 -89.1454 287.378 -112.955 299.234L-112.509 300.129C-88.8642 288.355 -66.8729 284.984 -46.0771 287.589C-25.2742 290.196 -5.63553 298.786 13.2904 310.982C41.9918 329.477 68.9799 356.21 95.8616 382.837C104.458 391.352 113.044 399.857 121.672 408.078C157.228 441.958 193.502 471.026 234.027 475.742C274.611 480.465 319.28 460.759 371.599 397.569C423.847 334.465 466.096 301.123 504.24 286.313C542.359 271.513 576.442 275.196 612.433 286.295C630.191 291.77 648.418 299.057 667.817 306.813C727.05 330.494 797.215 358.546 898.325 352.757C965.41 348.917 998.266 332.658 1012.55 308.926C1019.69 297.067 1022.16 283.398 1021.99 268.602C1021.82 253.811 1019.02 237.859 1015.6 221.416C1014.65 216.874 1013.66 212.294 1012.66 207.691L1012.64 207.589C1006.41 178.85 999.977 149.179 1003.47 121.755C1005.5 105.85 1010.87 90.7184 1021.55 76.9822C1032.24 63.2434 1048.26 50.8731 1071.66 40.528C1146.59 7.38842 1225.54 3.22416 1293.8 11.4929C1362.07 19.762 1419.62 40.4613 1451.72 57.0107L1452.18 56.1219ZM1314.87 50.0154C1383.25 58.2988 1440.92 79.0332 1473.12 95.6372L1472.66 96.526C1440.56 79.9765 1383.02 59.2772 1314.75 51.0082C1246.48 42.7394 1167.53 46.9037 1092.6 80.0432C1069.21 90.3884 1053.18 102.759 1042.49 116.497C1031.81 130.234 1026.44 145.365 1024.41 161.27C1020.92 188.695 1027.35 218.366 1033.58 247.104L1033.6 247.206L1033.63 247.331C1034.62 251.893 1035.6 256.43 1036.54 260.932C1039.96 277.374 1042.76 293.326 1042.93 308.117C1043.1 322.913 1040.63 336.582 1033.49 348.441C1019.21 372.173 986.351 388.432 919.267 392.273C818.156 398.061 747.991 370.009 688.759 346.328C669.359 338.573 651.132 331.286 633.375 325.81C597.383 314.711 563.3 311.028 525.181 325.829C487.037 340.639 444.789 373.98 392.541 437.085C340.222 500.274 295.553 519.98 254.968 515.258C214.443 510.542 178.17 481.474 142.614 447.593C133.986 439.372 125.4 430.868 116.803 422.352C89.9214 395.725 62.9332 368.992 34.2319 350.497C15.3059 338.301 -4.33269 329.711 -25.1357 327.105C-45.9315 324.5 -67.9227 327.87 -91.5674 339.644L-92.0131 338.749C-68.204 326.893 -46.0153 323.481 -25.0113 326.112C-4.01455 328.743 15.7664 337.408 34.7736 349.656C63.5714 368.214 90.6671 395.054 117.567 421.699L117.567 421.7C126.149 430.201 134.712 438.683 143.303 446.869C178.872 480.761 214.927 509.591 255.084 514.264C295.182 518.931 339.549 499.518 391.77 436.447C444.062 373.29 486.442 339.797 524.819 324.896C563.222 309.986 597.552 313.717 633.67 324.854C651.527 330.361 669.817 337.673 689.257 345.444L689.259 345.445C748.464 369.113 818.344 397.049 919.21 391.274C986.231 387.437 1018.62 371.204 1032.64 347.925C1039.65 336.278 1042.1 322.812 1041.93 308.129C1041.76 293.441 1038.98 277.571 1035.56 261.135C1034.61 256.576 1033.61 251.974 1032.61 247.341C1026.38 218.618 1019.9 188.754 1023.42 161.144C1025.47 145.091 1030.89 129.783 1041.7 115.883C1052.51 101.986 1068.69 89.5248 1092.19 79.1287C1167.33 45.8964 1246.48 41.7318 1314.87 50.0154ZM1494.06 135.152C1461.86 118.548 1404.19 97.814 1335.81 89.5307C1267.42 81.247 1188.27 85.4117 1113.13 118.644C1089.63 129.04 1073.45 141.502 1062.64 155.399C1051.83 169.298 1046.41 184.606 1044.36 200.659C1040.84 228.269 1047.32 258.133 1053.55 286.856C1054.56 291.489 1055.55 296.092 1056.5 300.651C1059.92 317.086 1062.71 332.957 1062.87 347.644C1063.04 362.327 1060.59 375.793 1053.58 387.441C1039.57 410.72 1007.17 426.953 940.151 430.789C839.285 436.564 769.405 408.628 710.2 384.96L710.199 384.96C690.758 377.188 672.469 369.876 654.611 364.37C618.494 353.232 584.163 349.501 545.761 364.412C507.384 379.312 465.004 412.806 412.712 475.962C360.491 539.033 316.124 558.446 276.026 553.779C235.869 549.106 199.813 520.277 164.245 486.385C155.653 478.198 147.091 469.716 138.508 461.215C111.609 434.569 84.5129 407.729 55.7151 389.172C36.7079 376.923 16.9269 368.258 -4.06987 365.628C-25.0738 362.996 -47.2625 366.408 -71.0717 378.264L-70.6259 379.159C-46.9812 367.385 -24.99 364.015 -4.19418 366.62C16.6088 369.226 36.2474 377.816 55.1734 390.012C83.8747 408.508 110.863 435.24 137.745 461.867C146.341 470.383 154.927 478.887 163.555 487.109C199.111 520.989 235.385 550.057 275.91 554.773C316.494 559.496 361.163 539.789 413.482 476.6C465.73 413.496 507.979 380.154 546.123 365.344C584.242 350.544 618.324 354.226 654.316 365.325C672.074 370.801 690.301 378.088 709.7 385.844C768.933 409.525 839.098 437.576 940.208 431.788C1007.29 427.947 1040.15 411.689 1054.44 387.956C1061.57 376.098 1064.04 362.429 1063.87 347.633C1063.7 332.841 1060.9 316.889 1057.48 300.447C1056.54 295.904 1055.54 291.324 1054.55 286.72L1054.52 286.619C1048.29 257.881 1041.86 228.21 1045.36 200.785C1047.38 184.881 1052.75 169.749 1063.43 156.013C1074.12 142.274 1090.15 129.904 1113.54 119.558C1188.47 86.4189 1267.42 82.2547 1335.69 90.5234C1403.96 98.7925 1461.51 119.492 1493.6 136.041L1494.06 135.152ZM1515 174.668C1482.8 158.064 1425.14 137.329 1356.75 129.046C1288.36 120.762 1209.22 124.927 1134.08 158.159C1110.57 168.555 1094.4 181.017 1083.59 194.914C1072.77 208.814 1067.35 224.122 1065.3 240.174C1061.79 267.784 1068.26 297.648 1074.49 326.372C1075.5 331.004 1076.49 335.607 1077.44 340.166C1080.86 356.602 1083.65 372.472 1083.81 387.159C1083.98 401.842 1081.53 415.309 1074.52 426.956C1060.51 450.235 1028.11 466.468 961.093 470.305C860.227 476.079 790.347 448.143 731.142 424.475L731.14 424.475C711.7 416.703 693.41 409.392 675.553 403.885C639.435 392.747 605.105 389.016 566.702 403.927C528.325 418.827 485.945 452.321 433.653 515.477C381.432 578.549 337.065 597.961 296.967 593.295C256.81 588.622 220.755 559.792 185.186 525.9C176.598 517.717 168.039 509.238 159.46 500.74L159.451 500.731L159.449 500.73C132.55 474.084 105.454 447.245 76.6565 428.687C57.6494 416.438 37.8684 407.773 16.8716 405.143C-4.13235 402.512 -26.321 405.924 -50.1302 417.78L-49.6844 418.675C-26.0398 406.901 -4.04853 403.53 16.7473 406.135C37.5503 408.741 57.1889 417.331 76.1149 429.527C104.816 448.023 131.804 474.755 158.686 501.383C167.283 509.898 175.869 518.403 184.497 526.624C220.053 560.504 256.326 589.572 296.851 594.288C337.436 599.011 382.105 579.304 434.424 516.115C486.672 453.011 528.92 419.669 567.064 404.859C605.183 390.059 639.266 393.741 675.258 404.84C693.015 410.316 711.242 417.603 730.642 425.359C789.874 449.04 860.039 477.091 961.15 471.303C1028.23 467.463 1061.09 451.204 1075.38 427.472C1082.52 415.613 1084.98 401.944 1084.81 387.148C1084.65 372.356 1081.84 356.405 1078.42 339.962C1077.48 335.419 1076.48 330.839 1075.49 326.235L1075.46 326.134C1069.23 297.396 1062.8 267.725 1066.3 240.3C1068.32 224.396 1073.69 209.264 1084.37 195.528C1095.06 181.789 1111.09 169.419 1134.48 159.074C1209.41 125.934 1288.36 121.77 1356.63 130.039C1424.9 138.308 1482.45 159.007 1514.55 175.556L1515 174.668Z" fill="url(#paint0_linear)"/>
<defs>
<linearGradient id="paint0_linear" x1="112.12" y1="263.533" x2="1193.35" y2="79.9983" gradientUnits="userSpaceOnUse">
<stop stop-color="#150544"/>
<stop offset="0.505208" stop-color="white"/>
<stop offset="0.979167" stop-color="#6552FF"/>
</linearGradient>
</defs>
</svg>
